<?xml version="1.0" encoding="UTF-8" standalone="no"?>
<svg xmlns="http://www.w3.org/2000/svg" width="22" height="22" viewBox="0 0 22 22">
  <defs>
    <linearGradient id="linearGradient3185">
      <stop offset="0" stop-color="#e5a80d"/>
      <stop offset="1" stop-color="#a11708"/>
    </linearGradient>
    <linearGradient id="linearGradient3177">
      <stop offset="0" stop-color="#7f7f7f"/>
      <stop offset="1" stop-color="#000000"/>
    </linearGradient>
  </defs>
  <!-- background blob (from fuel.svg) -->
  <path d="m 15.0,0.4 c -0.5,0.8 -1.1,2.0 -0.2,2.7 2.4,1.7 3.8,4.9 2.9,7.8 -0.3,1.6 0.5,3.2 1.0,4.7 0.1,1.0 -0.5,2.8 -1.7,2.2 -1.9,-2.0 -0.8,-4.9 -1.4,-7.3 -0.2,-1.8 -1.5,-3.9 -3.5,-3.5 -0.7,0.0 -0.8,0.8 -0.8,1.2 -0.9,0.7 0.4,1.3 1.0,1.6 1.2,2.9 -0.1,6.4 1.7,9.2 1.2,2.3 4.7,2.7 6.3,0.6 1.7,-1.9 1.7,-4.9 0.4,-7.0 -0.2,-2.0 0.5,-4.2 -0.1,-6.1 1.1,-0.4 0.8,-1.8 0.0,-2.4 -1.5,-1.8 -3.5,-3.0 -5.5,-4.0 -0.1,0.1 -0.1,0.3 -0.2,0.4 z" fill="#ffffff"/>
  <!-- pump body (from fuel.svg, coordinates adjusted: translate(0,78) removed) -->
  <rect x="3.5" y="1.8" width="8.9" height="18.7" fill="url(#linearGradient3185)" stroke="#000000" stroke-width="1.1" stroke-linecap="round" stroke-linejoin="round"/>
  <!-- display -->
  <rect x="5.1" y="3.4" width="5.6" height="5.5" fill="url(#linearGradient3177)"/>
  <!-- lightning bolt in display area -->
  <path d="M8.8 3.7 L6.4 7.5 L8.1 7.5 L6.7 10.7 L11.2 6.0 L9.2 6.0 Z" fill="#E9B44D"/>
  <!-- cable going right and down -->
  <path d="M12.4 5.5 L15.0 5.5 L16.5 5.5 L16.5 15.0 L15.5 16.5" fill="none" stroke="#000000" stroke-width="1.1" stroke-linecap="round" stroke-linejoin="round"/>
  <!-- plug connector -->
  <rect x="14.5" y="15.5" width="3.0" height="2.5" rx="0.5" fill="#ffffff" stroke="#000000" stroke-width="0.8"/>
  <!-- plug pins -->
  <line x1="15.3" y1="16.2" x2="16.8" y2="16.2" stroke="#E9B44D" stroke-width="0.7"/>
  <line x1="15.3" y1="17.0" x2="16.8" y2="17.0" stroke="#E9B44D" stroke-width="0.7"/>
</svg>
